<svg xmlns="http://www.w3.org/2000/svg" xmlns:xlink="http://www.w3.org/1999/xlink" width="300" zoomAndPan="magnify" viewBox="0 0 224.87999 225" height="300" preserveAspectRatio="xMidYMid meet" version="1.0"><defs><clipPath id="id1"><path d="M 23.417969 23.40625 L 201.738281 23.40625 L 201.738281 201.792969 L 23.417969 201.792969 Z M 23.417969 23.40625 " clip-rule="nonzero"/></clipPath></defs><path fill="#000000" d="M 149.386719 177.722656 C 149.386719 178.507812 148.753906 179.140625 147.972656 179.140625 L 77.175781 179.140625 C 76.398438 179.140625 75.761719 178.507812 75.761719 177.722656 L 75.761719 170.644531 C 75.761719 169.886719 76.019531 169.332031 76.535156 169 C 85.480469 163.167969 90.355469 147.695312 91.320312 141.113281 C 91.4375 140.3125 92.160156 139.492188 92.753906 139.492188 L 132.398438 139.492188 C 132.988281 139.492188 133.714844 140.3125 133.828125 141.113281 C 134.792969 147.695312 139.671875 163.167969 148.613281 169 C 149.128906 169.332031 149.386719 169.886719 149.386719 170.644531 Z M 150.164062 166.628906 C 142.109375 161.375 137.496094 146.628906 136.628906 140.707031 C 136.347656 138.765625 134.648438 136.664062 132.398438 136.664062 L 92.753906 136.664062 C 90.5 136.664062 88.804688 138.765625 88.519531 140.707031 C 87.652344 146.628906 83.039062 161.375 74.988281 166.628906 C 73.660156 167.496094 72.929688 168.917969 72.929688 170.644531 L 72.929688 177.722656 C 72.929688 180.070312 74.835938 181.972656 77.175781 181.972656 L 147.972656 181.972656 C 150.3125 181.972656 152.21875 180.070312 152.21875 177.722656 L 152.21875 170.644531 C 152.21875 168.917969 151.488281 167.496094 150.164062 166.628906 " fill-opacity="1" fill-rule="nonzero"/><g clip-path="url(#id1)"><path fill="#000000" d="M 195.988281 198.507812 C 195.75 198.789062 195.261719 198.960938 194.699219 198.960938 L 181.953125 198.960938 C 181.390625 198.960938 180.65625 198.117188 180.511719 197.269531 L 179.433594 191.882812 L 196.113281 191.882812 L 196.113281 197.546875 C 196.113281 197.628906 196.117188 197.707031 196.136719 197.789062 C 196.203125 198.195312 196.082031 198.394531 195.988281 198.507812 Z M 169.132812 150.988281 C 168.761719 137.625 167.679688 124.5625 166.351562 117.980469 C 161.972656 95.960938 162.691406 73.285156 168.46875 50.53125 C 175.101562 59.335938 198.941406 97.28125 198.902344 187.574219 C 198.902344 188.386719 198.265625 189.050781 197.480469 189.050781 L 177.707031 189.050781 C 177.285156 189.050781 176.535156 188.238281 176.230469 187.230469 C 174.378906 181.054688 171.308594 163.660156 169.132812 150.988281 Z M 164.984375 184.554688 C 164.71875 186.042969 163.507812 187.636719 162.132812 187.636719 L 63.019531 187.636719 C 61.628906 187.636719 60.425781 186.046875 60.164062 184.558594 C 58.859375 177.050781 58.488281 164.277344 58.769531 151.65625 C 58.769531 151.644531 58.777344 151.640625 58.777344 151.628906 C 58.78125 151.601562 58.769531 151.574219 58.777344 151.546875 C 59.078125 138.273438 60.113281 125.175781 61.570312 118.566406 C 66.347656 97.277344 65.488281 73.617188 59.019531 48.234375 L 67.902344 43.988281 C 68.78125 46.675781 70.605469 49.5 73.558594 51.46875 C 78.644531 54.859375 86.671875 58.722656 98.320312 60.546875 C 98.128906 62.292969 97.65625 63.378906 97.121094 64.582031 C 96.402344 66.203125 95.582031 68.039062 95.582031 71.523438 C 95.582031 75.015625 96.402344 76.851562 97.121094 78.476562 C 97.816406 80.035156 98.414062 81.386719 98.414062 84.273438 C 98.414062 87.160156 97.816406 88.511719 97.121094 90.070312 C 96.402344 91.691406 95.582031 93.53125 95.582031 97.015625 C 95.582031 97.800781 96.21875 98.433594 97 98.433594 C 97.78125 98.433594 98.414062 97.800781 98.414062 97.015625 C 98.414062 94.136719 99.011719 92.785156 99.710938 91.21875 C 100.429688 89.601562 101.246094 87.757812 101.246094 84.273438 C 101.246094 80.785156 100.429688 78.945312 99.710938 77.328125 C 99.011719 75.761719 98.414062 74.410156 98.414062 71.523438 C 98.414062 68.644531 99.011719 67.292969 99.710938 65.734375 C 100.261719 64.488281 100.871094 63.089844 101.125 60.933594 C 104.636719 61.363281 108.433594 61.617188 112.574219 61.617188 C 116.164062 61.617188 119.503906 61.429688 122.625 61.105469 C 122.890625 63.167969 123.488281 64.523438 124.023438 65.734375 C 124.71875 67.292969 125.316406 68.644531 125.316406 71.523438 C 125.316406 74.410156 124.71875 75.761719 124.023438 77.328125 C 123.304688 78.945312 122.484375 80.785156 122.484375 84.273438 C 122.484375 87.757812 123.304688 89.601562 124.023438 91.21875 C 124.71875 92.785156 125.316406 94.136719 125.316406 97.015625 C 125.316406 97.800781 125.953125 98.433594 126.734375 98.433594 C 127.515625 98.433594 128.148438 97.800781 128.148438 97.015625 C 128.148438 93.53125 127.332031 91.691406 126.613281 90.070312 C 125.914062 88.511719 125.316406 87.160156 125.316406 84.273438 C 125.316406 81.386719 125.914062 80.035156 126.613281 78.476562 C 127.332031 76.851562 128.148438 75.015625 128.148438 71.523438 C 128.148438 68.039062 127.332031 66.203125 126.613281 64.582031 C 126.09375 63.417969 125.640625 62.386719 125.433594 60.757812 C 137.839844 59.03125 146.300781 55 151.589844 51.46875 C 154.542969 49.5 156.367188 46.675781 157.246094 43.988281 L 166.125 48.234375 C 159.863281 71.933594 159.007812 95.578125 163.574219 118.539062 C 166.085938 130.992188 167.757812 169.046875 164.984375 184.554688 Z M 157.882812 198.960938 L 67.265625 198.960938 C 66.644531 198.960938 65.9375 198.175781 65.832031 197.3125 L 64.6875 190.46875 L 160.460938 190.46875 L 159.3125 197.375 C 159.210938 198.175781 158.503906 198.960938 157.882812 198.960938 Z M 48.917969 187.230469 C 48.617188 188.238281 47.863281 189.050781 47.441406 189.050781 L 27.667969 189.050781 C 26.882812 189.050781 26.25 188.386719 26.25 187.574219 C 26.210938 97.535156 50.003906 59.449219 56.664062 50.5625 C 62.652344 74.886719 63.382812 97.546875 58.804688 117.949219 C 57.332031 124.636719 56.285156 137.835938 55.964844 151.253906 C 53.820312 163.773438 50.765625 181.0625 48.917969 187.230469 Z M 43.195312 198.960938 L 30.492188 198.960938 C 29.925781 198.960938 29.445312 198.789062 29.203125 198.507812 C 29.109375 198.394531 28.984375 198.195312 29.058594 197.789062 C 29.070312 197.707031 29.082031 197.625 29.074219 197.539062 L 29.046875 191.882812 L 45.71875 191.882812 L 44.628906 197.3125 C 44.496094 198.117188 43.757812 198.960938 43.195312 198.960938 Z M 90.058594 27.957031 C 90.300781 31.941406 91.472656 35.761719 93.132812 39.308594 C 93.140625 39.316406 93.144531 39.328125 93.148438 39.339844 C 97.230469 48.046875 104.34375 55.085938 108.5 58.703125 C 91.898438 58.019531 81.265625 53.199219 75.128906 49.113281 C 71.148438 46.457031 70.097656 42.246094 70.097656 40.378906 C 70.097656 34.605469 77.171875 30.21875 90.058594 27.957031 Z M 132.265625 27.515625 C 132.097656 30.855469 131.203125 34.089844 129.898438 37.105469 C 124.75 36.507812 118.945312 36.175781 112.570312 36.144531 C 106.199219 36.175781 100.394531 36.507812 95.242188 37.105469 C 93.925781 34.0625 93.046875 30.832031 92.886719 27.515625 C 98.558594 26.703125 105.167969 26.269531 112.570312 26.230469 C 119.980469 26.269531 126.589844 26.703125 132.265625 27.515625 Z M 112.574219 58.417969 C 109.921875 56.292969 101.496094 49.117188 96.550781 39.816406 C 101.359375 39.296875 106.71875 39.003906 112.570312 38.976562 C 118.433594 39.003906 123.792969 39.296875 128.597656 39.816406 C 126.699219 43.390625 124.351562 46.574219 122.1875 49.109375 C 118.226562 53.753906 114.261719 57.078125 112.574219 58.417969 Z M 155.050781 40.378906 C 155.050781 42.246094 154 46.457031 150.019531 49.113281 C 143.890625 53.199219 133.261719 58.011719 116.667969 58.703125 C 122.53125 53.617188 134.261719 41.785156 135.089844 27.957031 C 147.984375 30.21875 155.050781 34.605469 155.050781 40.378906 Z M 201.734375 187.574219 C 201.777344 82.089844 170.164062 47.886719 168.820312 46.480469 C 168.820312 46.480469 168.8125 46.480469 168.8125 46.480469 C 168.695312 46.359375 168.5625 46.257812 168.402344 46.183594 L 157.835938 41.125 C 157.851562 40.878906 157.882812 40.617188 157.882812 40.378906 C 157.882812 30.171875 142.878906 26.292969 133.941406 24.894531 C 127.863281 23.949219 120.675781 23.4375 112.570312 23.398438 C 104.472656 23.4375 97.289062 23.949219 91.207031 24.894531 C 82.269531 26.292969 67.265625 30.164062 67.265625 40.378906 C 67.265625 40.617188 67.296875 40.878906 67.316406 41.125 L 56.742188 46.183594 C 56.585938 46.257812 56.453125 46.359375 56.335938 46.480469 C 56.335938 46.480469 56.332031 46.480469 56.332031 46.480469 C 54.988281 47.886719 23.371094 82.089844 23.417969 187.574219 C 23.417969 189.433594 24.589844 191.003906 26.210938 191.605469 L 26.242188 197.445312 C 26.09375 198.519531 26.375 199.542969 27.039062 200.328125 C 27.824219 201.261719 29.082031 201.792969 30.492188 201.792969 L 43.195312 201.792969 C 45.394531 201.792969 47.101562 199.707031 47.414062 197.828125 L 48.652344 191.632812 C 50.121094 191.054688 51.1875 189.511719 51.628906 188.042969 C 52.660156 184.632812 54.042969 178.101562 55.972656 167.558594 C 56.160156 174.460938 56.609375 180.644531 57.375 185.046875 C 57.769531 187.324219 59.46875 189.652344 61.789062 190.289062 L 63.027344 197.722656 C 63.273438 199.679688 64.964844 201.792969 67.265625 201.792969 L 157.882812 201.792969 C 160.183594 201.792969 161.878906 199.679688 162.113281 197.777344 L 163.359375 190.296875 C 165.730469 189.671875 167.371094 187.308594 167.773438 185.050781 C 168.570312 180.59375 169.019531 174.445312 169.1875 167.613281 C 171.113281 178.128906 172.496094 184.636719 173.519531 188.042969 C 173.957031 189.511719 175.03125 191.054688 176.496094 191.632812 L 177.722656 197.777344 C 178.050781 199.707031 179.753906 201.792969 181.953125 201.792969 L 194.699219 201.792969 C 196.109375 201.792969 197.367188 201.261719 198.15625 200.328125 C 198.816406 199.539062 199.09375 198.519531 198.945312 197.4375 L 198.945312 191.605469 C 200.566406 190.996094 201.734375 189.425781 201.734375 187.574219 " fill-opacity="1" fill-rule="nonzero"/></g></svg>