<svg xmlns="http://www.w3.org/2000/svg" xmlns:xlink="http://www.w3.org/1999/xlink" width="300" zoomAndPan="magnify" viewBox="0 0 224.87999 225" height="300" preserveAspectRatio="xMidYMid meet" version="1.0"><defs><clipPath id="id1"><path d="M 0 0.0585938 L 224.761719 0.0585938 L 224.761719 224.9375 L 0 224.9375 Z M 0 0.0585938 " clip-rule="nonzero"/></clipPath><clipPath id="id2"><path d="M 20.351562 28 L 204.753906 28 L 204.753906 197.191406 L 20.351562 197.191406 Z M 20.351562 28 " clip-rule="nonzero"/></clipPath></defs><g clip-path="url(#id1)"><path fill="#ffffff" d="M 0 0.0585938 L 224.878906 0.0585938 L 224.878906 224.941406 L 0 224.941406 Z M 0 0.0585938 " fill-opacity="1" fill-rule="nonzero"/><path fill="#ffffff" d="M 0 0.0585938 L 224.878906 0.0585938 L 224.878906 224.941406 L 0 224.941406 Z M 0 0.0585938 " fill-opacity="1" fill-rule="nonzero"/><path fill="#ffffff" d="M 0 0.0585938 L 224.878906 0.0585938 L 224.878906 224.941406 L 0 224.941406 Z M 0 0.0585938 " fill-opacity="1" fill-rule="nonzero"/></g><g clip-path="url(#id2)"><path fill="#000000" d="M 23.609375 188.847656 C 29.066406 190.628906 35.097656 192.15625 42.820312 193.71875 C 48.570312 169.25 54.511719 143.988281 60.519531 119.136719 C 60.707031 118.371094 61.4375 117.863281 62.210938 117.960938 C 62.996094 118.058594 63.582031 118.722656 63.570312 119.507812 C 63.417969 139.628906 63.257812 160.414062 63.324219 181.128906 C 94.429688 190.558594 128.558594 190.363281 159.691406 180.574219 C 159.753906 160.867188 159.816406 140.519531 159.960938 120.820312 C 159.964844 120.039062 160.5625 119.382812 161.339844 119.292969 C 162.113281 119.210938 162.839844 119.71875 163.019531 120.484375 C 168.480469 144.121094 174.125 168.542969 180.148438 193.253906 C 187.5 192.546875 194.695312 190.792969 201.570312 188.027344 C 195.621094 136.949219 186.394531 90.808594 173.378906 47.039062 C 163.382812 40.210938 152.65625 34.925781 141.480469 31.316406 C 121.636719 37.929688 100.039062 38.285156 80.539062 32.332031 C 70.199219 34.324219 59.566406 39.160156 48.921875 46.710938 C 35.203125 93.179688 26.691406 140.984375 23.609375 188.847656 Z M 43.984375 197.074219 C 43.882812 197.074219 43.78125 197.066406 43.683594 197.046875 C 34.5625 195.242188 27.71875 193.503906 21.488281 191.402344 C 20.828125 191.175781 20.402344 190.539062 20.445312 189.84375 C 23.476562 141.261719 32.089844 92.726562 46.027344 45.585938 L 46.097656 45.339844 C 46.195312 45.007812 46.398438 44.710938 46.683594 44.507812 C 57.96875 36.425781 69.296875 31.28125 80.34375 29.21875 C 80.589844 29.171875 80.847656 29.191406 81.085938 29.261719 C 100.222656 35.195312 121.488281 34.828125 140.972656 28.222656 C 141.289062 28.117188 141.625 28.117188 141.941406 28.214844 C 153.746094 31.972656 165.066406 37.550781 175.589844 44.804688 C 175.882812 45.007812 176.09375 45.296875 176.195312 45.632812 C 189.4375 90.0625 198.789062 136.90625 204.78125 188.832031 C 204.859375 189.515625 204.476562 190.171875 203.84375 190.4375 C 195.933594 193.757812 187.601562 195.78125 179.078125 196.453125 C 178.320312 196.5 177.632812 196.011719 177.453125 195.277344 C 172.394531 174.558594 167.605469 154.046875 162.96875 134.023438 C 162.882812 149.777344 162.835938 165.75 162.785156 181.316406 L 162.785156 181.707031 C 162.78125 182.375 162.351562 182.96875 161.710938 183.171875 C 129.328125 193.609375 93.675781 193.820312 61.316406 183.746094 C 60.675781 183.542969 60.234375 182.949219 60.230469 182.277344 C 60.171875 165.765625 60.257812 149.207031 60.375 132.964844 C 55.328125 154.039062 50.339844 175.25 45.488281 195.882812 C 45.320312 196.589844 44.691406 197.074219 43.984375 197.074219 " fill-opacity="1" fill-rule="nonzero"/></g><path fill="#000000" d="M 161.507812 122.375 C 160.695312 122.375 160.019531 121.753906 159.964844 120.933594 C 157.355469 81.589844 161.820312 56.746094 173.617188 44.980469 C 174.222656 44.378906 175.199219 44.378906 175.804688 44.980469 C 176.410156 45.585938 176.410156 46.566406 175.804688 47.171875 C 164.832031 58.113281 160.542969 82.859375 163.050781 120.730469 C 163.109375 121.585938 162.460938 122.316406 161.609375 122.375 C 161.578125 122.375 161.542969 122.375 161.507812 122.375 " fill-opacity="1" fill-rule="nonzero"/><path fill="#000000" d="M 62.027344 121.042969 C 61.980469 121.042969 61.933594 121.039062 61.878906 121.039062 C 61.027344 120.957031 60.402344 120.203125 60.484375 119.351562 C 63.539062 87.09375 57.777344 57.40625 46.472656 47.171875 C 45.835938 46.59375 45.789062 45.621094 46.363281 44.988281 C 46.941406 44.355469 47.917969 44.304688 48.550781 44.878906 C 60.535156 55.730469 66.707031 86.472656 63.566406 119.640625 C 63.488281 120.445312 62.816406 121.042969 62.027344 121.042969 " fill-opacity="1" fill-rule="nonzero"/><path fill="#000000" d="M 110.414062 51.417969 C 97.515625 51.417969 84.417969 43.011719 79.210938 31.367188 C 78.863281 30.589844 79.21875 29.679688 79.996094 29.332031 C 80.773438 28.984375 81.695312 29.332031 82.042969 30.109375 C 86.773438 40.6875 98.683594 48.324219 110.414062 48.324219 C 110.46875 48.324219 110.519531 48.324219 110.574219 48.324219 C 122.464844 48.242188 135.414062 39.789062 140.050781 29.074219 C 140.386719 28.292969 141.300781 27.933594 142.085938 28.273438 C 142.871094 28.609375 143.234375 29.519531 142.890625 30.300781 C 137.808594 42.050781 123.621094 51.324219 110.59375 51.417969 C 110.535156 51.417969 110.476562 51.417969 110.414062 51.417969 " fill-opacity="1" fill-rule="nonzero"/></svg>