<svg xmlns="http://www.w3.org/2000/svg" xmlns:xlink="http://www.w3.org/1999/xlink" width="300" zoomAndPan="magnify" viewBox="0 0 224.87999 225" height="300" preserveAspectRatio="xMidYMid meet" version="1.0"><defs><clipPath id="id1"><path d="M 0 0.0585938 L 224.761719 0.0585938 L 224.761719 224.9375 L 0 224.9375 Z M 0 0.0585938 " clip-rule="nonzero"/></clipPath><clipPath id="id2"><path d="M 110 82 L 115 82 L 115 204.859375 L 110 204.859375 Z M 110 82 " clip-rule="nonzero"/></clipPath><clipPath id="id3"><path d="M 92 20.460938 L 132 20.460938 L 132 40 L 92 40 Z M 92 20.460938 " clip-rule="nonzero"/></clipPath><clipPath id="id4"><path d="M 11.15625 68 L 213.550781 68 L 213.550781 204.859375 L 11.15625 204.859375 Z M 11.15625 68 " clip-rule="nonzero"/></clipPath></defs><g clip-path="url(#id1)"><path fill="#ffffff" d="M 0 0.0585938 L 224.878906 0.0585938 L 224.878906 224.941406 L 0 224.941406 Z M 0 0.0585938 " fill-opacity="1" fill-rule="nonzero"/><path fill="#ffffff" d="M 0 0.0585938 L 224.878906 0.0585938 L 224.878906 224.941406 L 0 224.941406 Z M 0 0.0585938 " fill-opacity="1" fill-rule="nonzero"/><path fill="#ffffff" d="M 0 0.0585938 L 224.878906 0.0585938 L 224.878906 224.941406 L 0 224.941406 Z M 0 0.0585938 " fill-opacity="1" fill-rule="nonzero"/></g><g clip-path="url(#id2)"><path fill="#000000" d="M 112.34375 204.773438 C 111.371094 204.773438 110.566406 203.980469 110.566406 202.996094 L 110.566406 84.050781 C 110.566406 83.070312 111.371094 82.273438 112.34375 82.273438 C 113.332031 82.273438 114.117188 83.070312 114.117188 84.050781 L 114.117188 202.996094 C 114.117188 203.980469 113.332031 204.773438 112.34375 204.773438 Z M 112.34375 204.773438 " fill-opacity="1" fill-rule="nonzero"/></g><path fill="#000000" d="M 142.367188 162.808594 L 121.242188 162.808594 C 120.253906 162.808594 119.464844 162.015625 119.464844 161.03125 C 119.464844 160.050781 120.253906 159.253906 121.242188 159.253906 L 142.367188 159.253906 C 143.339844 159.253906 144.125 160.050781 144.125 161.03125 C 144.125 162.015625 143.339844 162.808594 142.367188 162.808594 Z M 142.367188 162.808594 " fill-opacity="1" fill-rule="nonzero"/><path fill="#000000" d="M 126.164062 112.808594 C 125.195312 112.808594 124.390625 112.011719 124.390625 111.03125 L 124.390625 70.113281 C 124.390625 69.132812 125.195312 68.335938 126.164062 68.335938 C 127.152344 68.335938 127.941406 69.132812 127.941406 70.113281 L 127.941406 111.03125 C 127.941406 112.011719 127.152344 112.808594 126.164062 112.808594 Z M 126.164062 112.808594 " fill-opacity="1" fill-rule="nonzero"/><path fill="#000000" d="M 85.941406 54.898438 L 112.34375 81.535156 L 138.742188 54.898438 C 141.359375 51.796875 140.078125 46.96875 137.550781 43.988281 C 131.566406 36.949219 116.738281 36.300781 112.34375 36.265625 C 107.96875 36.300781 93.136719 36.949219 87.152344 43.988281 C 84.625 46.96875 83.34375 51.796875 85.941406 54.898438 Z M 112.34375 85.828125 C 111.886719 85.828125 111.425781 85.644531 111.097656 85.304688 L 83.378906 57.355469 C 83.363281 57.324219 83.324219 57.296875 83.308594 57.265625 C 79.351562 52.664062 80.945312 45.804688 84.460938 41.683594 C 91.214844 33.714844 106.210938 32.757812 112.34375 32.710938 C 118.492188 32.757812 133.488281 33.714844 140.242188 41.683594 C 143.742188 45.804688 145.332031 52.664062 141.398438 57.265625 C 141.378906 57.296875 141.34375 57.324219 141.304688 57.355469 L 113.605469 85.304688 C 113.277344 85.644531 112.820312 85.828125 112.34375 85.828125 Z M 112.34375 85.828125 " fill-opacity="1" fill-rule="nonzero"/><g clip-path="url(#id3)"><path fill="#000000" d="M 94.53125 39.054688 C 94.144531 39.054688 93.742188 38.929688 93.429688 38.671875 C 92.660156 38.066406 92.515625 36.949219 93.121094 36.179688 C 101.320312 25.722656 106.539062 20.414062 112.34375 20.414062 C 118.144531 20.414062 123.363281 25.722656 131.566406 36.175781 C 132.167969 36.949219 132.023438 38.0625 131.253906 38.667969 C 130.484375 39.277344 129.367188 39.140625 128.765625 38.367188 C 121.625 29.25 116.644531 23.96875 112.34375 23.96875 C 108.039062 23.96875 103.0625 29.25 95.921875 38.375 C 95.574219 38.824219 95.042969 39.054688 94.53125 39.054688 Z M 94.53125 39.054688 " fill-opacity="1" fill-rule="nonzero"/></g><g clip-path="url(#id4)"><path fill="#000000" d="M 152.746094 204.773438 L 71.957031 204.773438 C 70.984375 204.773438 70.199219 204.003906 70.179688 203.035156 L 68.75 136.464844 L 39.699219 180.46875 C 39.167969 181.253906 38.140625 181.496094 37.316406 181.027344 L 12.164062 166.472656 C 11.742188 166.222656 11.449219 165.808594 11.339844 165.328125 C 11.230469 164.847656 11.320312 164.339844 11.59375 163.929688 L 69.539062 78.417969 C 75.945312 68.949219 87.917969 68.625 98.484375 68.335938 C 99.453125 68.300781 100.277344 69.085938 100.3125 70.066406 C 100.332031 71.050781 99.5625 71.863281 98.574219 71.890625 C 88.871094 72.15625 77.867188 72.453125 72.46875 80.417969 L 15.605469 164.347656 L 37.648438 177.113281 L 68.933594 129.769531 C 69.355469 129.121094 70.160156 128.824219 70.894531 129.042969 C 71.644531 129.257812 72.15625 129.933594 72.175781 130.707031 L 73.695312 201.21875 L 151.007812 201.21875 L 152.527344 130.707031 C 152.546875 129.933594 153.058594 129.257812 153.789062 129.042969 C 154.542969 128.824219 155.347656 129.121094 155.769531 129.769531 L 187.039062 177.113281 L 209.097656 164.347656 L 152.234375 80.417969 C 146.832031 72.453125 135.832031 72.15625 126.128906 71.890625 C 125.140625 71.863281 124.371094 71.050781 124.386719 70.066406 C 124.425781 69.085938 125.230469 68.300781 126.21875 68.335938 C 136.78125 68.625 148.757812 68.949219 155.164062 78.417969 L 213.105469 163.929688 C 213.382812 164.339844 213.472656 164.847656 213.363281 165.328125 C 213.253906 165.808594 212.960938 166.222656 212.519531 166.472656 L 187.367188 181.027344 C 186.5625 181.496094 185.535156 181.253906 185.003906 180.46875 L 155.933594 136.464844 L 154.523438 203.035156 C 154.503906 204.003906 153.699219 204.773438 152.746094 204.773438 Z M 152.746094 204.773438 " fill-opacity="1" fill-rule="nonzero"/></g><path fill="#000000" d="M 103.464844 162.808594 L 82.335938 162.808594 C 81.367188 162.808594 80.5625 162.015625 80.5625 161.03125 C 80.5625 160.050781 81.367188 159.253906 82.335938 159.253906 L 103.464844 159.253906 C 104.453125 159.253906 105.238281 160.050781 105.238281 161.03125 C 105.238281 162.015625 104.453125 162.808594 103.464844 162.808594 Z M 103.464844 162.808594 " fill-opacity="1" fill-rule="nonzero"/><path fill="#000000" d="M 98.539062 112.808594 C 97.550781 112.808594 96.761719 112.011719 96.761719 111.03125 L 96.761719 70.113281 C 96.761719 69.132812 97.550781 68.335938 98.539062 68.335938 C 99.507812 68.335938 100.316406 69.132812 100.316406 70.113281 L 100.316406 111.03125 C 100.316406 112.011719 99.507812 112.808594 98.539062 112.808594 Z M 98.539062 112.808594 " fill-opacity="1" fill-rule="nonzero"/></svg>