<svg xmlns="http://www.w3.org/2000/svg" xmlns:xlink="http://www.w3.org/1999/xlink" width="300" zoomAndPan="magnify" viewBox="0 0 224.87999 225" height="300" preserveAspectRatio="xMidYMid meet" version="1.0"><defs><clipPath id="id1"><path d="M 0 0.0585938 L 224.761719 0.0585938 L 224.761719 224.9375 L 0 224.9375 Z M 0 0.0585938 " clip-rule="nonzero"/></clipPath><clipPath id="id2"><path d="M 24.792969 21.316406 L 200.199219 21.316406 L 200.199219 203.472656 L 24.792969 203.472656 Z M 24.792969 21.316406 " clip-rule="nonzero"/></clipPath><clipPath id="id3"><path d="M 84 21.316406 L 141 21.316406 L 141 49 L 84 49 Z M 84 21.316406 " clip-rule="nonzero"/></clipPath></defs><g clip-path="url(#id1)"><path fill="#ffffff" d="M 0 0.0585938 L 224.878906 0.0585938 L 224.878906 1154.445312 L 0 1154.445312 Z M 0 0.0585938 " fill-opacity="1" fill-rule="nonzero"/><path fill="#ffffff" d="M 0 0.0585938 L 224.878906 0.0585938 L 224.878906 224.941406 L 0 224.941406 Z M 0 0.0585938 " fill-opacity="1" fill-rule="nonzero"/><path fill="#ffffff" d="M 0 0.0585938 L 224.878906 0.0585938 L 224.878906 224.941406 L 0 224.941406 Z M 0 0.0585938 " fill-opacity="1" fill-rule="nonzero"/><path fill="#ffffff" d="M 0 0.0585938 L 224.878906 0.0585938 L 224.878906 224.941406 L 0 224.941406 Z M 0 0.0585938 " fill-opacity="1" fill-rule="nonzero"/></g><g clip-path="url(#id2)"><path fill="#373535" d="M 159.527344 203.472656 L 65.445312 203.472656 C 65.230469 203.472656 65.023438 203.429688 64.824219 203.347656 C 64.628906 203.269531 64.453125 203.152344 64.300781 203 C 64.152344 202.847656 64.035156 202.675781 63.953125 202.476562 C 63.871094 202.277344 63.828125 202.074219 63.828125 201.859375 L 63.828125 88.828125 L 56.25 101.679688 C 56.058594 102.007812 55.785156 102.238281 55.425781 102.371094 C 55.070312 102.503906 54.710938 102.511719 54.347656 102.390625 L 25.9375 92.9375 C 25.722656 92.867188 25.535156 92.757812 25.367188 92.609375 C 25.199219 92.457031 25.070312 92.28125 24.976562 92.078125 C 24.886719 91.875 24.835938 91.660156 24.832031 91.4375 C 24.828125 91.214844 24.867188 91 24.953125 90.792969 L 42.976562 47.320312 C 43.707031 45.558594 44.71875 43.980469 46.019531 42.582031 C 47.316406 41.183594 48.816406 40.050781 50.519531 39.1875 L 85.402344 21.542969 C 85.796875 21.347656 86.199219 21.3125 86.621094 21.445312 C 94.230469 23.839844 103.171875 25.101562 112.484375 25.101562 C 121.796875 25.101562 130.742188 23.839844 138.351562 21.445312 C 138.769531 21.3125 139.175781 21.347656 139.566406 21.542969 L 174.449219 39.1875 C 176.15625 40.050781 177.65625 41.183594 178.953125 42.582031 C 180.25 43.980469 181.265625 45.558594 181.996094 47.320312 L 200.015625 90.792969 C 200.101562 91 200.144531 91.214844 200.140625 91.4375 C 200.136719 91.660156 200.085938 91.875 199.992188 92.078125 C 199.902344 92.28125 199.769531 92.457031 199.605469 92.609375 C 199.4375 92.757812 199.246094 92.867188 199.035156 92.9375 L 170.621094 102.390625 C 170.261719 102.511719 169.902344 102.503906 169.546875 102.371094 C 169.1875 102.238281 168.914062 102.007812 168.71875 101.679688 L 161.144531 88.828125 L 161.144531 201.859375 C 161.144531 202.074219 161.101562 202.277344 161.019531 202.476562 C 160.9375 202.675781 160.820312 202.847656 160.667969 203 C 160.519531 203.152344 160.34375 203.269531 160.144531 203.347656 C 159.949219 203.429688 159.742188 203.472656 159.527344 203.472656 Z M 67.058594 200.246094 L 157.910156 200.246094 L 157.910156 70.710938 C 157.910156 70.496094 157.953125 70.292969 158.03125 70.09375 C 158.113281 69.898438 158.230469 69.722656 158.382812 69.570312 C 158.53125 69.417969 158.707031 69.304688 158.902344 69.21875 C 159.101562 69.136719 159.304688 69.097656 159.519531 69.09375 C 159.734375 69.09375 159.9375 69.132812 160.136719 69.214844 C 160.335938 69.296875 160.511719 69.410156 160.664062 69.5625 C 160.816406 69.710938 160.933594 69.882812 161.015625 70.082031 C 161.097656 70.277344 161.140625 70.480469 161.140625 70.695312 L 161.253906 82.65625 L 170.839844 98.917969 L 196.367188 90.425781 L 179.011719 48.554688 C 178.429688 47.148438 177.617188 45.890625 176.582031 44.773438 C 175.546875 43.65625 174.351562 42.753906 172.992188 42.066406 L 138.691406 24.71875 C 130.914062 27.082031 121.867188 28.328125 112.484375 28.328125 C 103.105469 28.328125 94.058594 27.082031 86.28125 24.71875 L 51.980469 42.066406 C 50.621094 42.753906 49.425781 43.65625 48.386719 44.773438 C 47.351562 45.886719 46.542969 47.148438 45.960938 48.554688 L 28.601562 90.425781 L 54.128906 98.917969 L 63.71875 82.65625 L 63.828125 70.695312 C 63.832031 70.484375 63.875 70.277344 63.957031 70.082031 C 64.039062 69.886719 64.15625 69.714844 64.308594 69.5625 C 64.457031 69.414062 64.632812 69.300781 64.828125 69.21875 C 65.027344 69.136719 65.230469 69.097656 65.445312 69.097656 L 65.453125 69.097656 C 65.664062 69.097656 65.871094 69.140625 66.066406 69.222656 C 66.265625 69.304688 66.4375 69.421875 66.589844 69.570312 C 66.742188 69.722656 66.855469 69.898438 66.9375 70.09375 C 67.019531 70.292969 67.058594 70.496094 67.058594 70.710938 Z M 67.058594 200.246094 " fill-opacity="1" fill-rule="nonzero"/></g><g clip-path="url(#id3)"><path fill="#373535" d="M 112.484375 48.800781 C 111.457031 48.804688 110.433594 48.746094 109.414062 48.613281 C 108.394531 48.484375 107.386719 48.289062 106.394531 48.027344 C 105.398438 47.765625 104.425781 47.4375 103.476562 47.046875 C 102.527344 46.65625 101.605469 46.203125 100.714844 45.6875 C 99.824219 45.175781 98.972656 44.605469 98.160156 43.980469 C 97.34375 43.355469 96.574219 42.679688 95.847656 41.949219 C 95.125 41.222656 94.453125 40.449219 93.828125 39.632812 C 93.207031 38.816406 92.640625 37.960938 92.132812 37.070312 L 84.515625 23.902344 C 84.402344 23.710938 84.335938 23.503906 84.308594 23.285156 C 84.285156 23.0625 84.300781 22.847656 84.367188 22.636719 C 84.429688 22.421875 84.53125 22.230469 84.675781 22.0625 C 84.816406 21.890625 84.984375 21.757812 85.183594 21.65625 L 85.402344 21.546875 C 85.796875 21.347656 86.199219 21.3125 86.621094 21.445312 C 94.230469 23.839844 103.171875 25.101562 112.484375 25.101562 C 121.796875 25.101562 130.742188 23.839844 138.351562 21.445312 C 138.769531 21.3125 139.175781 21.347656 139.566406 21.542969 L 139.785156 21.65625 C 139.984375 21.753906 140.15625 21.890625 140.296875 22.0625 C 140.441406 22.230469 140.542969 22.421875 140.605469 22.636719 C 140.667969 22.847656 140.6875 23.0625 140.660156 23.285156 C 140.636719 23.503906 140.566406 23.710938 140.457031 23.902344 L 132.839844 37.070312 C 132.328125 37.964844 131.765625 38.816406 131.140625 39.632812 C 130.519531 40.453125 129.847656 41.222656 129.121094 41.953125 C 128.398438 42.679688 127.628906 43.355469 126.8125 43.980469 C 125.996094 44.609375 125.144531 45.175781 124.253906 45.691406 C 123.363281 46.203125 122.445312 46.65625 121.492188 47.046875 C 120.542969 47.4375 119.570312 47.765625 118.578125 48.027344 C 117.582031 48.289062 116.578125 48.484375 115.558594 48.613281 C 114.539062 48.746094 113.511719 48.804688 112.484375 48.800781 Z M 89.191406 25.535156 L 94.929688 35.457031 C 95.820312 36.996094 96.894531 38.390625 98.152344 39.648438 C 99.410156 40.902344 100.808594 41.976562 102.351562 42.863281 C 103.890625 43.75 105.519531 44.425781 107.238281 44.886719 C 108.957031 45.34375 110.707031 45.574219 112.484375 45.574219 C 114.265625 45.574219 116.011719 45.34375 117.730469 44.886719 C 119.449219 44.425781 121.078125 43.75 122.621094 42.863281 C 124.160156 41.976562 125.5625 40.902344 126.820312 39.648438 C 128.078125 38.390625 129.152344 36.996094 130.039062 35.457031 L 135.78125 25.535156 C 128.695312 27.367188 120.71875 28.328125 112.484375 28.328125 C 104.25 28.328125 96.277344 27.367188 89.191406 25.535156 Z M 89.191406 25.535156 " fill-opacity="1" fill-rule="nonzero"/></g></svg>