<svg xmlns="http://www.w3.org/2000/svg" xmlns:xlink="http://www.w3.org/1999/xlink" width="300" zoomAndPan="magnify" viewBox="0 0 224.87999 225" height="300" preserveAspectRatio="xMidYMid meet" version="1.0"><defs><clipPath id="id1"><path d="M 50.253906 19.339844 L 174.6875 19.339844 L 174.6875 205.988281 L 50.253906 205.988281 Z M 50.253906 19.339844 " clip-rule="nonzero"/></clipPath></defs><g clip-path="url(#id1)"><path fill="#000000" d="M 83.363281 26.554688 C 85.433594 37.066406 89.089844 45.828125 94.078125 52.117188 C 99.28125 58.6875 105.8125 62.304688 112.46875 62.304688 C 119.125 62.304688 125.65625 58.6875 130.859375 52.117188 C 135.839844 45.828125 139.503906 37.066406 141.570312 26.554688 C 135.210938 33.355469 124.628906 37.398438 112.46875 37.398438 C 100.308594 37.398438 89.722656 33.355469 83.363281 26.554688 Z M 53.117188 203.078125 L 171.8125 203.078125 L 171.8125 86.71875 C 160.539062 81.152344 154.230469 68.753906 153.558594 50.78125 C 153.136719 39.558594 154.984375 29.519531 155.730469 26.003906 L 145.148438 22.6875 C 143.214844 35.613281 139.0625 46.378906 133.105469 53.898438 C 127.347656 61.171875 120.015625 65.171875 112.46875 65.171875 C 104.921875 65.171875 97.589844 61.171875 91.828125 53.898438 C 85.871094 46.378906 81.722656 35.613281 79.789062 22.6875 L 69.207031 26.003906 C 69.949219 29.519531 71.800781 39.558594 71.378906 50.78125 C 70.707031 68.753906 64.398438 81.152344 53.117188 86.71875 Z M 173.246094 205.949219 L 51.683594 205.949219 C 50.894531 205.949219 50.25 205.304688 50.25 204.511719 L 50.25 85.808594 C 50.25 85.246094 50.582031 84.734375 51.09375 84.5 C 61.984375 79.5625 67.84375 68.199219 68.511719 50.734375 C 69.019531 37.453125 66.15625 25.488281 66.125 25.367188 C 65.949219 24.632812 66.371094 23.886719 67.09375 23.660156 L 80.515625 19.453125 C 80.570312 19.433594 80.625 19.417969 80.679688 19.410156 C 80.785156 19.390625 80.886719 19.382812 80.988281 19.378906 C 81.246094 19.382812 81.492188 19.457031 81.707031 19.585938 C 81.835938 19.660156 81.945312 19.757812 82.046875 19.867188 C 82.125 19.953125 82.191406 20.054688 82.25 20.164062 C 87.035156 29.023438 98.609375 34.527344 112.46875 34.527344 C 126.324219 34.527344 137.902344 29.023438 142.6875 20.164062 C 142.738281 20.0625 142.804688 19.96875 142.875 19.882812 C 142.980469 19.757812 143.101562 19.65625 143.238281 19.578125 C 143.449219 19.453125 143.691406 19.382812 143.945312 19.378906 C 144.050781 19.378906 144.15625 19.390625 144.253906 19.410156 C 144.3125 19.421875 144.367188 19.4375 144.417969 19.453125 L 157.84375 23.660156 C 158.5625 23.886719 158.984375 24.632812 158.804688 25.371094 C 158.78125 25.488281 155.917969 37.453125 156.425781 50.734375 C 157.089844 68.199219 162.949219 79.5625 173.839844 84.5 C 174.351562 84.734375 174.679688 85.246094 174.679688 85.808594 L 174.679688 204.511719 C 174.679688 205.304688 174.039062 205.949219 173.246094 205.949219 Z M 173.246094 205.949219 " fill-opacity="1" fill-rule="evenodd"/></g></svg>